<!DOCTYPE svg PUBLIC "-//W3C//DTD SVG 1.1//EN" "http://www.w3.org/Graphics/SVG/1.1/DTD/svg11.dtd">
<!-- Uploaded to: SVG Repo, www.svgrepo.com, Transformed by: SVG Repo Mixer Tools -->
<svg width="800px" height="800px" viewBox="0 0 512 512" enable-background="new 0 0 512 512" id="Layer_1" version="1.1" xml:space="preserve" xmlns="http://www.w3.org/2000/svg" xmlns:xlink="http://www.w3.org/1999/xlink" fill="#000000">
<g id="SVGRepo_bgCarrier" stroke-width="0"/>
<g id="SVGRepo_tracerCarrier" stroke-linecap="round" stroke-linejoin="round"/>
<g id="SVGRepo_iconCarrier">
<path d="M364.7,283.6h69.8c0,0,0,0,0,0V192c0-10.4-8.4-18.7-18.7-18.7h-80.2V132c0-11.9-9.7-21.7-21.6-21.7h-9.9 c-0.1,0-0.1,0-0.2,0c-0.7-5.4-5.4-9.7-11-9.7h-73.8c-5.7,0-10.3,4.2-11,9.7c-0.1,0-0.1,0-0.2,0H198c-11.9,0-21.6,9.7-21.6,21.7v41.2 H96.2c-10.4,0-18.7,8.4-18.7,18.7v91.6c0,0,0,0,0,0h69.8c4.8,0,8.7,3.9,8.7,8.7s-3.9,8.7-8.7,8.7H77.5c0,0,0,0,0,0v91.6 c0,10.4,8.4,18.7,18.7,18.7h319.6c10.4,0,18.7-8.4,18.7-18.7v-91.6c0,0,0,0,0,0h-69.8c-4.8,0-8.7-3.9-8.7-8.7 S359.9,283.6,364.7,283.6z M130.6,213.9h-8.3c-0.7,0-1.3,0.6-1.3,1.3v5.2c0,4.8-3.9,8.7-8.7,8.7c-4.8,0-8.7-3.9-8.7-8.7v-5.2 c0-10.2,8.3-18.6,18.6-18.6h8.3c4.8,0,8.7,3.9,8.7,8.7C139.2,210,135.4,213.9,130.6,213.9z M193.7,132c0-2.4,1.9-4.3,4.3-4.3h9.9 c0.1,0,0.1,0,0.2,0c0.7,5.5,5.4,9.7,11,9.7h73.8c5.7,0,10.3-4.2,11-9.7c0.1,0,0.1,0,0.2,0h9.9c2.4,0,4.3,2,4.3,4.3v41.2H193.7V132z" fill="#000000"/>
</g>
</svg>